# xmcd CD database file
#
# Track frame offsets:
#	150
#	20185
#	37100
#	63735
#	87885
#	113908
#	131852
#	158734
#	176900
#	198075
#	219750
#	246225
#	267975
#
# Disc length: 3806 seconds
#
# Revision: 0
# Processed by: cddbd v1.5.1PL0 Copyright (c) Steve Scherf et al.
# Submitted via: CDex 1.50Beta5
#
DISCID=c00edc0d
DTITLE=AA.VV. - New Age
DYEAR=2003
DGENRE=New Age
TTITLE0=Nimbus
TTITLE1=Ever so lonely
TTITLE2=cave Walk
TTITLE3=Migration
TTITLE4=Este mi lugar
TTITLE5=Aart Attack
TTITLE6=Narada Muny Bajay Vina
TTITLE7=Mother love
TTITLE8=In the move
TTITLE9=Mata Hari
TTITLE10=Sacred doors
TTITLE11=Orleans
TTITLE12=Rodina/home
EXTD=YEAR: 2003
EXTT0=
EXTT1=
EXTT2=
EXTT3=
EXTT4=
EXTT5=
EXTT6=
EXTT7=
EXTT8=
EXTT9=
EXTT10=
EXTT11=
EXTT12=
PLAYORDER=
